<svg class="logo" viewBox="0 0 72 36" role="img" aria-label="wichtelm-app" xmlns="http://www.w3.org/2000/svg">
  <g fill="none" stroke="currentColor" stroke-width="1.5" stroke-linecap="round" stroke-linejoin="round">
    <rect x="3" y="24" width="30" height="3" rx="0.6"/>
    <path d="M7 27 L5 33"/>
    <path d="M29 27 L31 33"/>
    <path d="M9 24 L25 24 C 32 19 32 10 28 4 C 22 11 15 18 9 24 Z" fill="currentColor" fill-opacity="0.08"/>
    <path d="M18 19 L24 21"/>
    <path d="M38 21 V14"/>
    <path d="M43 19 V10"/>
    <path d="M48 16 V7"/>
    <path d="M53 13 V4"/>
    <path d="M58 11 V2"/>
    <rect x="36.5" y="15" width="3" height="5"/>
    <rect x="41.5" y="12" width="3" height="6"/>
    <rect x="46.5" y="9" width="3" height="6"/>
    <rect x="51.5" y="6" width="3" height="6"/>
    <rect x="56.5" y="4" width="3" height="6"/>
  </g>
  <g fill="currentColor" stroke="none">
    <path d="M33 8 l1 1 l-1 1 l-1 -1 z"/>
    <path d="M40 5 l0.8 0.8 l-0.8 0.8 l-0.8 -0.8 z"/>
    <path d="M64 6 l0.7 0.7 l-0.7 0.7 l-0.7 -0.7 z"/>
  </g>
</svg>
